<svg width="197" height="69" viewBox="0 0 197 69" fill="none" xmlns="http://www.w3.org/2000/svg">
<path d="M64.9981 15.7946C67.5152 15.7946 69.7393 16.2773 71.6702 17.2428C73.6012 18.1738 75.2046 19.4841 76.4804 21.1737C77.7907 22.8288 78.7734 24.7597 79.4285 26.9665C80.0837 29.1389 80.4112 31.4491 80.4112 33.8973C80.4112 37.242 79.8251 40.2936 78.6527 43.0521C77.4803 45.7761 75.7563 47.9484 73.4805 49.5691C71.2047 51.1897 68.3772 52 64.9981 52H52.3779C51.6538 52 51.0331 51.7586 50.5159 51.2759C49.9987 50.7587 49.7401 50.1208 49.7401 49.3622V18.4324C49.7401 17.6738 49.9987 17.0531 50.5159 16.5704C51.0331 16.0532 51.6538 15.7946 52.3779 15.7946H64.9981ZM64.4809 47.0347C66.929 47.0347 68.9117 46.4313 70.4289 45.2244C71.9461 44.0176 73.0495 42.4314 73.7391 40.466C74.4632 38.4661 74.8253 36.2765 74.8253 33.8973C74.8253 32.1387 74.6184 30.4836 74.2046 28.932C73.8253 27.3458 73.2046 25.9493 72.3426 24.7425C71.515 23.5012 70.4461 22.5357 69.1358 21.8461C67.86 21.1219 66.3084 20.7599 64.4809 20.7599H54.7054L55.1709 20.2944V47.5519L54.8606 47.0347H64.4809ZM108.487 24.3804C109.246 24.3804 109.866 24.639 110.349 25.1563C110.832 25.639 111.073 26.2597 111.073 27.0183V49.3622C111.073 50.1208 110.832 50.7587 110.349 51.2759C109.866 51.7586 109.246 52 108.487 52C107.763 52 107.142 51.7586 106.625 51.2759C106.142 50.7587 105.901 50.1208 105.901 49.3622V45.6382L106.987 45.7934C106.987 46.414 106.728 47.1036 106.211 47.8622C105.728 48.6208 105.056 49.3622 104.194 50.0863C103.332 50.7759 102.315 51.3621 101.142 51.8448C99.9701 52.2931 98.7115 52.5172 97.3668 52.5172C94.9876 52.5172 92.8497 51.9138 90.9532 50.7069C89.0568 49.4656 87.5568 47.776 86.4534 45.6382C85.35 43.5003 84.7983 41.0694 84.7983 38.3454C84.7983 35.5524 85.35 33.1042 86.4534 31.0009C87.5568 28.863 89.0395 27.1907 90.9015 25.9838C92.798 24.777 94.9014 24.1735 97.2116 24.1735C98.6943 24.1735 100.056 24.4149 101.298 24.8977C102.573 25.3804 103.677 26.0011 104.608 26.7596C105.539 27.5182 106.246 28.3286 106.728 29.1906C107.246 30.0181 107.504 30.8112 107.504 31.5698L105.901 31.725V27.0183C105.901 26.2942 106.142 25.6735 106.625 25.1563C107.142 24.639 107.763 24.3804 108.487 24.3804ZM97.9357 47.7588C99.5563 47.7588 100.987 47.345 102.229 46.5175C103.47 45.6899 104.435 44.5693 105.125 43.1555C105.815 41.7073 106.16 40.1039 106.16 38.3454C106.16 36.5524 105.815 34.949 105.125 33.5352C104.435 32.1215 103.47 31.0009 102.229 30.1733C100.987 29.3458 99.5563 28.932 97.9357 28.932C96.3496 28.932 94.9358 29.3458 93.6945 30.1733C92.4877 31.0009 91.5222 32.1215 90.7981 33.5352C90.1084 34.949 89.7636 36.5524 89.7636 38.3454C89.7636 40.1039 90.1084 41.7073 90.7981 43.1555C91.5222 44.5693 92.4877 45.6899 93.6945 46.5175C94.9358 47.345 96.3496 47.7588 97.9357 47.7588ZM132.025 24.3287C134.439 24.3287 136.577 24.9321 138.439 26.139C140.335 27.3458 141.835 29.0009 142.939 31.1043C144.042 33.1732 144.594 35.5869 144.594 38.3454C144.594 41.1039 144.042 43.5521 142.939 45.6899C141.835 47.7933 140.353 49.4484 138.491 50.6552C136.629 51.8621 134.525 52.4655 132.181 52.4655C130.87 52.4655 129.629 52.2586 128.457 51.8448C127.284 51.4311 126.25 50.8966 125.353 50.2415C124.457 49.5518 123.715 48.8277 123.129 48.0691C122.577 47.3105 122.233 46.6037 122.095 45.9485L123.491 45.2761V59.7066C123.491 60.4652 123.233 61.0858 122.715 61.5686C122.233 62.0858 121.629 62.3444 120.905 62.3444C120.147 62.3444 119.526 62.0858 119.043 61.5686C118.56 61.0858 118.319 60.4652 118.319 59.7066V27.3286C118.319 26.6045 118.56 25.9838 119.043 25.4666C119.526 24.9494 120.147 24.6908 120.905 24.6908C121.629 24.6908 122.233 24.9494 122.715 25.4666C123.233 25.9838 123.491 26.6045 123.491 27.3286V30.8974L122.664 30.4319C122.767 29.7768 123.095 29.1044 123.646 28.4148C124.198 27.6906 124.888 27.0183 125.715 26.3976C126.577 25.7769 127.543 25.277 128.612 24.8977C129.715 24.5184 130.853 24.3287 132.025 24.3287ZM131.456 29.0871C129.801 29.0871 128.353 29.5009 127.112 30.3285C125.905 31.1215 124.957 32.2077 124.267 33.587C123.577 34.9662 123.233 36.5524 123.233 38.3454C123.233 40.1039 123.577 41.7073 124.267 43.1555C124.957 44.5693 125.905 45.6899 127.112 46.5175C128.353 47.3105 129.801 47.7071 131.456 47.7071C133.077 47.7071 134.491 47.3105 135.698 46.5175C136.904 45.6899 137.853 44.5693 138.542 43.1555C139.266 41.7073 139.629 40.1039 139.629 38.3454C139.629 36.5868 139.266 35.0179 138.542 33.6387C137.853 32.2249 136.904 31.1215 135.698 30.3285C134.491 29.5009 133.077 29.0871 131.456 29.0871ZM156.029 49.3622C156.029 50.1208 155.771 50.7587 155.253 51.2759C154.771 51.7586 154.167 52 153.443 52C152.719 52 152.098 51.7586 151.581 51.2759C151.098 50.7587 150.857 50.1208 150.857 49.3622V16.3635C150.857 15.6049 151.116 14.9843 151.633 14.5015C152.15 13.9843 152.771 13.7257 153.495 13.7257C154.253 13.7257 154.857 13.9843 155.305 14.5015C155.788 14.9843 156.029 15.6049 156.029 16.3635V49.3622ZM183.193 24.5873C183.952 24.5873 184.572 24.8459 185.055 25.3632C185.538 25.8459 185.779 26.4666 185.779 27.2251V49.4656C185.779 52.5 185.193 54.9654 184.021 56.8619C182.883 58.7583 181.331 60.1376 179.366 60.9996C177.435 61.8961 175.245 62.3444 172.797 62.3444C171.556 62.3444 170.314 62.2237 169.073 61.9824C167.832 61.7755 166.814 61.4651 166.021 61.0514C165.194 60.6721 164.608 60.2066 164.263 59.6549C163.918 59.1032 163.866 58.4997 164.108 57.8446C164.349 57.017 164.763 56.4481 165.349 56.1378C165.935 55.8619 166.539 55.8447 167.159 56.086C167.745 56.3274 168.521 56.6377 169.487 57.017C170.452 57.3963 171.556 57.586 172.797 57.586C174.486 57.586 175.917 57.3101 177.09 56.7584C178.262 56.2067 179.141 55.3447 179.728 54.1723C180.348 53 180.659 51.4828 180.659 49.6208V46.052L181.486 47.2933C180.934 48.4312 180.21 49.3794 179.314 50.138C178.417 50.8966 177.348 51.4828 176.107 51.8966C174.9 52.3103 173.555 52.5172 172.073 52.5172C170.176 52.5172 168.538 52.1034 167.159 51.2759C165.814 50.4139 164.78 49.2415 164.056 47.7588C163.332 46.2416 162.97 44.5175 162.97 42.5866V27.2251C162.97 26.4666 163.211 25.8459 163.694 25.3632C164.177 24.8459 164.797 24.5873 165.556 24.5873C166.28 24.5873 166.883 24.8459 167.366 25.3632C167.883 25.8459 168.142 26.4666 168.142 27.2251V41.1901C168.142 43.4659 168.642 45.1382 169.642 46.2071C170.642 47.2416 172.125 47.7588 174.09 47.7588C175.4 47.7588 176.538 47.4829 177.504 46.9312C178.469 46.3795 179.228 45.6209 179.779 44.6555C180.331 43.6555 180.607 42.5004 180.607 41.1901V27.2251C180.607 26.4666 180.848 25.8459 181.331 25.3632C181.848 24.8459 182.469 24.5873 183.193 24.5873Z" fill="white"/>
<path d="M71.6702 17.2428L71.3397 17.9037L71.3493 17.9084L71.6702 17.2428ZM76.4804 21.1737L75.8907 21.6189L75.8958 21.6257L75.901 21.6323L76.4804 21.1737ZM79.4285 26.9665L78.7202 27.1768L78.7211 27.1799L79.4285 26.9665ZM78.6527 43.0521L79.3314 43.3442L79.3327 43.3411L78.6527 43.0521ZM73.4805 49.5691L73.0519 48.9672L73.4805 49.5691ZM50.5159 51.2759L49.9934 51.7984L50.0024 51.8074L50.0117 51.8161L50.5159 51.2759ZM50.5159 16.5704L51.0201 17.1106L51.0294 17.1019L51.0384 17.0929L50.5159 16.5704ZM70.4289 45.2244L70.8889 45.8027L70.8889 45.8027L70.4289 45.2244ZM73.7391 40.466L73.0443 40.2144L73.0419 40.2214L73.7391 40.466ZM74.2046 28.932L73.486 29.1038L73.4882 29.1131L73.4907 29.1224L74.2046 28.932ZM72.3426 24.7425L71.7278 25.1524L71.7344 25.1623L71.7413 25.172L72.3426 24.7425ZM69.1358 21.8461L68.7711 22.4887L68.7813 22.4944L68.7917 22.4999L69.1358 21.8461ZM54.7054 20.7599L54.1829 20.2374L52.9216 21.4988H54.7054V20.7599ZM55.1709 20.2944H55.9098V18.5106L54.6484 19.7719L55.1709 20.2944ZM55.1709 47.5519L54.5373 47.9321L55.9098 50.2195V47.5519H55.1709ZM54.8606 47.0347V46.2958H53.5555L54.227 47.4148L54.8606 47.0347ZM64.9981 16.5335C67.4195 16.5335 69.5272 16.9974 71.3398 17.9037L72.0007 16.5819C69.9514 15.5573 67.6109 15.0557 64.9981 15.0557V16.5335ZM71.3493 17.9084C73.1758 18.789 74.6866 20.0243 75.8907 21.6189L77.07 20.7284C75.7225 18.9439 74.0265 17.5586 71.9911 16.5772L71.3493 17.9084ZM75.901 21.6323C77.1478 23.2072 78.0894 25.0521 78.7202 27.1768L80.1369 26.7563C79.4573 24.4674 78.4335 22.4504 77.0597 20.715L75.901 21.6323ZM78.7211 27.1799C79.3538 29.2778 79.6724 31.5157 79.6724 33.8973H81.1501C81.1501 31.3825 80.8135 29 80.1359 26.7532L78.7211 27.1799ZM79.6724 33.8973C79.6724 37.1542 79.1019 40.106 77.9727 42.7631L79.3327 43.3411C80.5482 40.4811 81.1501 37.3298 81.1501 33.8973H79.6724ZM77.974 42.76C76.8517 45.3678 75.2107 47.4299 73.0519 48.9672L73.9091 50.1709C76.3018 48.467 78.109 46.1845 79.3314 43.3442L77.974 42.76ZM73.0519 48.9672C70.9256 50.4814 68.2564 51.2611 64.9981 51.2611V52.7389C68.4981 52.7389 71.4839 51.898 73.9091 50.1709L73.0519 48.9672ZM64.9981 51.2611H52.3779V52.7389H64.9981V51.2611ZM52.3779 51.2611C51.8361 51.2611 51.3969 51.0875 51.0201 50.7357L50.0117 51.8161C50.6693 52.4298 51.4715 52.7389 52.3779 52.7389V51.2611ZM51.0384 50.7534C50.6654 50.3804 50.479 49.9329 50.479 49.3622H49.0012C49.0012 50.3086 49.332 51.1369 49.9934 51.7984L51.0384 50.7534ZM50.479 49.3622V18.4324H49.0012V49.3622H50.479ZM50.479 18.4324C50.479 17.8621 50.6642 17.4427 51.0201 17.1106L50.0117 16.0302C49.3331 16.6636 49.0012 17.4856 49.0012 18.4324H50.479ZM51.0384 17.0929C51.4186 16.7126 51.852 16.5335 52.3779 16.5335V15.0557C51.4556 15.0557 50.6476 15.3937 49.9934 16.0479L51.0384 17.0929ZM52.3779 16.5335H64.9981V15.0557H52.3779V16.5335ZM64.4809 47.7736C67.0514 47.7736 69.2097 47.1383 70.8889 45.8027L69.9689 44.6462C68.6137 45.7242 66.8067 46.2958 64.4809 46.2958V47.7736ZM70.8889 45.8027C72.5231 44.5027 73.7042 42.7972 74.4363 40.7106L73.0419 40.2214C72.3948 42.0656 71.369 43.5324 69.9689 44.6462L70.8889 45.8027ZM74.4338 40.7175C75.1904 38.628 75.5641 36.3522 75.5641 33.8973H74.0864C74.0864 36.2008 73.736 38.3042 73.0443 40.2144L74.4338 40.7175ZM75.5641 33.8973C75.5641 32.0805 75.3504 30.3609 74.9185 28.7416L73.4907 29.1224C73.8864 30.6063 74.0864 32.197 74.0864 33.8973H75.5641ZM74.9232 28.7601C74.524 27.0906 73.8665 25.6048 72.9439 24.313L71.7413 25.172C72.5427 26.2939 73.1266 27.6011 73.486 29.1038L74.9232 28.7601ZM72.9574 24.3326C72.0619 22.9895 70.9003 21.9397 69.48 21.1922L68.7917 22.4999C69.992 23.1316 70.9682 24.0129 71.7278 25.1524L72.9574 24.3326ZM69.5006 21.2035C68.0894 20.4025 66.4052 20.021 64.4809 20.021V21.4988C66.2115 21.4988 67.6307 21.8414 68.7711 22.4887L69.5006 21.2035ZM64.4809 20.021H54.7054V21.4988H64.4809V20.021ZM55.2279 21.2824L55.6934 20.8169L54.6484 19.7719L54.1829 20.2374L55.2279 21.2824ZM54.432 20.2944V47.5519H55.9098V20.2944H54.432ZM55.8045 47.1718L55.4941 46.6545L54.227 47.4148L54.5373 47.9321L55.8045 47.1718ZM54.8606 47.7736H64.4809V46.2958H54.8606V47.7736ZM110.349 25.1563L109.809 25.6604L109.818 25.6697L109.827 25.6787L110.349 25.1563ZM110.349 51.2759L110.871 51.7984L110.88 51.7894L110.889 51.78L110.349 51.2759ZM106.625 51.2759L106.085 51.78L106.102 51.7987L106.121 51.8161L106.625 51.2759ZM105.901 45.6382L106.005 44.9067L105.162 44.7862V45.6382H105.901ZM106.987 45.7934H107.726V45.1525L107.092 45.0619L106.987 45.7934ZM106.211 47.8622L105.601 47.446L105.594 47.4557L105.588 47.4655L106.211 47.8622ZM104.194 50.0863L104.656 50.6633L104.663 50.6577L104.669 50.6521L104.194 50.0863ZM101.142 51.8448L101.406 52.535L101.415 52.5316L101.424 52.5281L101.142 51.8448ZM90.9532 50.7069L90.5485 51.3252L90.5565 51.3303L90.9532 50.7069ZM86.4534 45.6382L85.7968 45.9771L85.7968 45.9771L86.4534 45.6382ZM86.4534 31.0009L87.1078 31.3441L87.11 31.3397L86.4534 31.0009ZM90.9015 25.9838L90.5048 25.3604L90.4996 25.3638L90.9015 25.9838ZM101.298 24.8977L101.03 25.5863L101.036 25.5887L101.298 24.8977ZM104.608 26.7596L105.075 26.1868L105.075 26.1868L104.608 26.7596ZM106.728 29.1906L106.084 29.5516L106.092 29.5671L106.102 29.5822L106.728 29.1906ZM107.504 31.5698L107.575 32.3052L108.243 32.2406V31.5698H107.504ZM105.901 31.725H105.162V32.5388L105.972 32.4604L105.901 31.725ZM106.625 25.1563L106.103 24.6338L106.094 24.6428L106.085 24.6521L106.625 25.1563ZM102.229 46.5175L102.639 47.1323L102.639 47.1323L102.229 46.5175ZM105.125 43.1555L105.789 43.4795L105.792 43.4732L105.125 43.1555ZM102.229 30.1733L102.639 29.5585L102.638 29.5585L102.229 30.1733ZM93.6945 30.1733L93.2846 29.5585L93.2766 29.5639L93.6945 30.1733ZM90.7981 33.5352L90.1404 33.1984L90.1371 33.2048L90.134 33.2113L90.7981 33.5352ZM90.7981 43.1555L90.131 43.4732L90.1356 43.4829L90.1404 43.4924L90.7981 43.1555ZM93.6945 46.5175L93.2766 47.1269L93.2846 47.1323L93.6945 46.5175ZM108.487 25.1193C109.057 25.1193 109.477 25.3046 109.809 25.6604L110.889 24.6521C110.256 23.9735 109.434 23.6415 108.487 23.6415V25.1193ZM109.827 25.6787C110.155 26.0069 110.334 26.4318 110.334 27.0183H111.812C111.812 26.0876 111.509 25.2711 110.871 24.6338L109.827 25.6787ZM110.334 27.0183V49.3622H111.812V27.0183H110.334ZM110.334 49.3622C110.334 49.9484 110.154 50.4018 109.809 50.7717L110.889 51.78C111.509 51.1156 111.812 50.2931 111.812 49.3622H110.334ZM109.827 50.7534C109.498 51.0816 109.073 51.2611 108.487 51.2611V52.7389C109.418 52.7389 110.234 52.4357 110.871 51.7984L109.827 50.7534ZM108.487 51.2611C107.945 51.2611 107.506 51.0875 107.129 50.7357L106.121 51.8161C106.778 52.4298 107.581 52.7389 108.487 52.7389V51.2611ZM107.165 50.7717C106.82 50.4018 106.64 49.9484 106.64 49.3622H105.162C105.162 50.2931 105.465 51.1156 106.085 51.78L107.165 50.7717ZM106.64 49.3622V45.6382H105.162V49.3622H106.64ZM105.796 46.3697L106.883 46.5248L107.092 45.0619L106.005 44.9067L105.796 46.3697ZM106.248 45.7934C106.248 46.2101 106.072 46.7545 105.601 47.446L106.822 48.2785C107.385 47.4528 107.726 46.618 107.726 45.7934H106.248ZM105.588 47.4655C105.154 48.1469 104.537 48.8332 103.719 49.5205L104.669 50.6521C105.575 49.8911 106.303 49.0948 106.835 48.2589L105.588 47.4655ZM103.732 49.5093C102.933 50.1492 101.978 50.7017 100.861 51.1616L101.424 52.5281C102.652 52.0225 103.731 51.4026 104.656 50.6633L103.732 49.5093ZM100.879 51.1547C99.7963 51.5685 98.6278 51.7783 97.3668 51.7783V53.2561C98.7953 53.2561 100.144 53.0177 101.406 52.535L100.879 51.1547ZM97.3668 51.7783C95.1195 51.7783 93.1208 51.2105 91.3499 50.0836L90.5565 51.3303C92.5786 52.6171 94.8556 53.2561 97.3668 53.2561V51.7783ZM91.3579 50.0887C89.5747 48.9215 88.1587 47.3311 87.11 45.2993L85.7968 45.9771C86.955 48.221 88.5389 50.0097 90.5486 51.3252L91.3579 50.0887ZM87.11 45.2993C86.0675 43.2794 85.5372 40.9672 85.5372 38.3454H84.0594C84.0594 41.1716 84.6326 43.7213 85.7968 45.9771L87.11 45.2993ZM85.5372 38.3454C85.5372 35.6509 86.0689 33.3244 87.1077 31.3441L85.7991 30.6576C84.6311 32.884 84.0594 35.4538 84.0594 38.3454H85.5372ZM87.11 31.3397C88.1595 29.3063 89.5583 27.7349 91.3034 26.6039L90.4996 25.3638C88.5207 26.6464 86.9541 28.4198 85.7968 30.662L87.11 31.3397ZM91.2982 26.6072C93.0727 25.478 95.0378 24.9124 97.2116 24.9124V23.4347C94.7649 23.4347 92.5233 24.076 90.5048 25.3604L91.2982 26.6072ZM97.2116 24.9124C98.613 24.9124 99.883 25.1403 101.03 25.5863L101.565 24.209C100.23 23.6895 98.7756 23.4347 97.2116 23.4347V24.9124ZM101.036 25.5887C102.248 26.0471 103.279 26.6304 104.141 27.3325L105.075 26.1868C104.074 25.3717 102.899 24.7137 101.559 24.2066L101.036 25.5887ZM104.141 27.3325C105.015 28.0446 105.655 28.7862 106.084 29.5516L107.373 28.8296C106.836 27.8709 106.063 26.9919 105.075 26.1868L104.141 27.3325ZM106.102 29.5822C106.566 30.3255 106.765 30.9842 106.765 31.5698H108.243C108.243 30.6382 107.925 29.7108 107.355 28.799L106.102 29.5822ZM107.433 30.8343L105.83 30.9895L105.972 32.4604L107.575 32.3052L107.433 30.8343ZM106.64 31.725V27.0183H105.162V31.725H106.64ZM106.64 27.0183C106.64 26.4764 106.813 26.0373 107.165 25.6604L106.085 24.6521C105.471 25.3097 105.162 26.1119 105.162 27.0183H106.64ZM107.147 25.6787C107.528 25.2985 107.961 25.1193 108.487 25.1193V23.6415C107.565 23.6415 106.757 23.9796 106.103 24.6338L107.147 25.6787ZM97.9357 48.4977C99.6891 48.4977 101.265 48.0477 102.639 47.1323L101.819 45.9027C100.709 46.6423 99.4236 47.0199 97.9357 47.0199V48.4977ZM102.639 47.1323C103.995 46.228 105.045 45.0043 105.789 43.4795L104.461 42.8316C103.826 44.1342 102.945 45.1518 101.819 45.9027L102.639 47.1323ZM105.792 43.4732C106.533 41.9165 106.898 40.2031 106.898 38.3454H105.421C105.421 40.0047 105.096 41.4981 104.458 42.8379L105.792 43.4732ZM106.898 38.3454C106.898 36.4559 106.534 34.7392 105.789 33.2113L104.461 33.8592C105.095 35.1588 105.421 36.6489 105.421 38.3454H106.898ZM105.789 33.2113C105.045 31.6864 103.995 30.4628 102.639 29.5585L101.819 30.7881C102.945 31.539 103.826 32.5566 104.461 33.8592L105.789 33.2113ZM102.638 29.5585C101.265 28.643 99.6891 28.1931 97.9357 28.1931V29.6709C99.4236 29.6709 100.709 30.0485 101.819 30.7881L102.638 29.5585ZM97.9357 28.1931C96.2134 28.1931 94.6552 28.6448 93.2846 29.5585L94.1044 30.7881C95.2165 30.0467 96.4858 29.6709 97.9357 29.6709V28.1931ZM93.2766 29.5639C91.9599 30.4668 90.9156 31.6849 90.1404 33.1984L91.4557 33.8721C92.1287 32.5581 93.0154 31.5349 94.1124 30.7827L93.2766 29.5639ZM90.134 33.2113C89.3887 34.7392 89.0247 36.4559 89.0247 38.3454H90.5025C90.5025 36.6489 90.8282 35.1588 91.4622 33.8592L90.134 33.2113ZM89.0247 38.3454C89.0247 40.2031 89.3897 41.9165 90.131 43.4732L91.4652 42.8379C90.8272 41.4981 90.5025 40.0047 90.5025 38.3454H89.0247ZM90.1404 43.4924C90.9156 45.0059 91.9599 46.224 93.2766 47.1268L94.1124 45.9081C93.0154 45.1559 92.1287 44.1326 91.4557 42.8187L90.1404 43.4924ZM93.2846 47.1323C94.6552 48.0459 96.2134 48.4977 97.9357 48.4977V47.0199C96.4858 47.0199 95.2165 46.6441 94.1044 45.9027L93.2846 47.1323ZM138.439 26.139L138.037 26.759L138.042 26.7624L138.439 26.139ZM142.939 31.1043L142.284 31.4476L142.287 31.452L142.939 31.1043ZM142.939 45.6899L143.593 46.0332L143.595 46.0288L142.939 45.6899ZM138.491 50.6552L138.893 51.2753L138.893 51.2753L138.491 50.6552ZM128.457 51.8448L128.211 52.5416L128.211 52.5416L128.457 51.8448ZM125.353 50.2415L124.903 50.8271L124.91 50.8327L124.917 50.838L125.353 50.2415ZM123.129 48.0691L122.532 48.5037L122.538 48.5124L122.545 48.5209L123.129 48.0691ZM122.095 45.9485L121.774 45.2828L121.252 45.534L121.372 46.1007L122.095 45.9485ZM123.491 45.2761H124.23V44.1003L123.171 44.6104L123.491 45.2761ZM122.715 61.5686L122.211 61.0284L122.193 61.0458L122.175 61.0644L122.715 61.5686ZM119.043 61.5686L119.583 61.0644L119.575 61.0551L119.566 61.0461L119.043 61.5686ZM119.043 25.4666L119.583 25.9708L119.583 25.9708L119.043 25.4666ZM122.715 25.4666L122.175 25.9708L122.184 25.9801L122.193 25.9891L122.715 25.4666ZM123.491 30.8974L123.129 31.5414L124.23 32.1608V30.8974H123.491ZM122.664 30.4319L121.934 30.3167L121.854 30.8241L122.301 31.0759L122.664 30.4319ZM123.646 28.4148L124.223 28.8763L124.229 28.8695L124.234 28.8626L123.646 28.4148ZM125.715 26.3976L125.284 25.798L125.278 25.8022L125.272 25.8065L125.715 26.3976ZM128.612 24.8977L128.372 24.1989L128.365 24.2013L128.612 24.8977ZM127.112 30.3285L127.518 30.946L127.522 30.9433L127.112 30.3285ZM124.267 43.1555L123.6 43.4732L123.603 43.4795L124.267 43.1555ZM127.112 46.5175L126.694 47.1268L126.704 47.1336L126.714 47.1401L127.112 46.5175ZM135.698 46.5175L136.103 47.135L136.109 47.131L136.115 47.1268L135.698 46.5175ZM138.542 43.1555L137.881 42.8251L137.878 42.8316L138.542 43.1555ZM138.542 33.6387L137.878 33.9626L137.883 33.9725L137.888 33.9821L138.542 33.6387ZM135.698 30.3285L135.28 30.9379L135.286 30.942L135.292 30.946L135.698 30.3285ZM132.025 25.0676C134.309 25.0676 136.305 25.6366 138.037 26.759L138.841 25.5189C136.849 24.2277 134.569 23.5898 132.025 23.5898V25.0676ZM138.042 26.7624C139.824 27.896 141.237 29.4517 142.284 31.4475L143.593 30.7611C142.433 28.5501 140.847 26.7957 138.836 25.5156L138.042 26.7624ZM142.287 31.452C143.324 33.3965 143.855 35.6867 143.855 38.3454H145.333C145.333 35.487 144.76 32.9499 143.591 30.7566L142.287 31.452ZM143.855 38.3454C143.855 41.0034 143.324 43.3324 142.282 45.351L143.595 46.0288C144.76 43.7717 145.333 41.2044 145.333 38.3454H143.855ZM142.284 45.3467C141.236 47.3458 139.837 48.9022 138.089 50.0352L138.893 51.2753C140.869 49.9945 142.435 48.2408 143.593 46.0332L142.284 45.3467ZM138.089 50.0352C136.353 51.16 134.391 51.7266 132.181 51.7266V53.2044C134.659 53.2044 136.904 52.5642 138.893 51.2753L138.089 50.0352ZM132.181 51.7266C130.949 51.7266 129.792 51.5325 128.702 51.1481L128.211 52.5416C129.466 52.9847 130.791 53.2044 132.181 53.2044V51.7266ZM128.702 51.1481C127.59 50.7554 126.621 50.2528 125.789 49.6449L124.917 50.838C125.878 51.5404 126.978 52.1067 128.211 52.5416L128.702 51.1481ZM125.804 49.6558C124.949 48.9981 124.255 48.3177 123.714 47.6173L122.545 48.5209C123.176 49.3377 123.965 50.1055 124.903 50.8271L125.804 49.6558ZM123.727 47.6345C123.213 46.9287 122.927 46.3173 122.818 45.7963L121.372 46.1007C121.538 46.89 121.942 47.6924 122.532 48.5037L123.727 47.6345ZM122.415 46.6143L123.812 45.9419L123.171 44.6104L121.774 45.2828L122.415 46.6143ZM122.752 45.2761V59.7066H124.23V45.2761H122.752ZM122.752 59.7066C122.752 60.2769 122.567 60.6963 122.211 61.0284L123.22 62.1087C123.898 61.4754 124.23 60.6534 124.23 59.7066H122.752ZM122.175 61.0644C121.836 61.428 121.43 61.6055 120.905 61.6055V63.0833C121.829 63.0833 122.629 62.7436 123.256 62.0727L122.175 61.0644ZM120.905 61.6055C120.335 61.6055 119.915 61.4202 119.583 61.0644L118.503 62.0727C119.136 62.7514 119.958 63.0833 120.905 63.0833V61.6055ZM119.566 61.0461C119.237 60.7179 119.058 60.2931 119.058 59.7066H117.58C117.58 60.6373 117.883 61.4537 118.521 62.091L119.566 61.0461ZM119.058 59.7066V27.3286H117.58V59.7066H119.058ZM119.058 27.3286C119.058 26.7868 119.232 26.3476 119.583 25.9708L118.503 24.9624C117.889 25.62 117.58 26.4222 117.58 27.3286H119.058ZM119.583 25.9708C119.915 25.6149 120.335 25.4297 120.905 25.4297V23.9519C119.958 23.9519 119.136 24.2838 118.503 24.9624L119.583 25.9708ZM120.905 25.4297C121.43 25.4297 121.836 25.6072 122.175 25.9708L123.256 24.9624C122.629 24.2916 121.829 23.9519 120.905 23.9519V25.4297ZM122.193 25.9891C122.573 26.3693 122.752 26.8027 122.752 27.3286H124.23C124.23 26.4063 123.892 25.5983 123.238 24.9441L122.193 25.9891ZM122.752 27.3286V30.8974H124.23V27.3286H122.752ZM123.853 30.2534L123.026 29.7879L122.301 31.0759L123.129 31.5414L123.853 30.2534ZM123.394 30.5472C123.471 30.054 123.726 29.4978 124.223 28.8763L123.069 27.9532C122.463 28.7109 122.063 29.4995 121.934 30.3167L123.394 30.5472ZM124.234 28.8626C124.739 28.1994 125.378 27.5739 126.159 26.9887L125.272 25.8065C124.397 26.4626 123.657 27.1819 123.059 27.967L124.234 28.8626ZM126.147 26.9972C126.949 26.42 127.851 25.9515 128.859 25.594L128.365 24.2013C127.234 24.6024 126.206 25.1338 125.284 25.798L126.147 26.9972ZM128.852 25.5964C129.878 25.2438 130.934 25.0676 132.025 25.0676V23.5898C130.772 23.5898 129.553 23.7929 128.372 24.1989L128.852 25.5964ZM131.456 28.3483C129.672 28.3483 128.078 28.7965 126.702 29.7137L127.522 30.9433C128.628 30.2054 129.931 29.826 131.456 29.826V28.3483ZM126.706 29.711C125.383 30.5804 124.35 31.769 123.606 33.2565L124.928 33.9174C125.563 32.6465 126.427 31.6626 127.518 30.946L126.706 29.711ZM123.606 33.2565C122.858 34.7538 122.494 36.4563 122.494 38.3454H123.972C123.972 36.6484 124.297 35.1786 124.928 33.9174L123.606 33.2565ZM122.494 38.3454C122.494 40.2031 122.859 41.9165 123.6 43.4732L124.934 42.8379C124.296 41.4981 123.972 40.0047 123.972 38.3454H122.494ZM123.603 43.4795C124.344 44.9992 125.374 46.2216 126.694 47.1268L127.53 45.9081C126.436 45.1582 125.569 44.1394 124.931 42.8316L123.603 43.4795ZM126.714 47.1401C128.088 48.0182 129.678 48.446 131.456 48.446V46.9682C129.924 46.9682 128.618 46.6029 127.51 45.8948L126.714 47.1401ZM131.456 48.446C133.203 48.446 134.762 48.0167 136.103 47.135L135.292 45.9C134.22 46.6044 132.951 46.9682 131.456 46.9682V48.446ZM136.115 47.1268C137.436 46.2216 138.465 44.9992 139.206 43.4795L137.878 42.8316C137.24 44.1394 136.373 45.1582 135.28 45.9081L136.115 47.1268ZM139.203 43.486C139.983 41.9265 140.367 40.2086 140.367 38.3454H138.89C138.89 39.9993 138.55 41.4881 137.881 42.8251L139.203 43.486ZM140.367 38.3454C140.367 36.4828 139.983 34.7934 139.197 33.2952L137.888 33.9821C138.55 35.2424 138.89 36.6909 138.89 38.3454H140.367ZM139.206 33.3147C138.464 31.7927 137.431 30.5834 136.103 29.711L135.292 30.946C136.378 31.6597 137.241 32.6572 137.878 33.9626L139.206 33.3147ZM136.115 29.7191C134.773 28.7982 133.21 28.3483 131.456 28.3483V29.826C132.945 29.826 134.209 30.2036 135.28 30.9379L136.115 29.7191ZM155.253 51.2759L154.731 50.7534L154.731 50.7534L155.253 51.2759ZM151.581 51.2759L151.041 51.78L151.058 51.7987L151.077 51.8161L151.581 51.2759ZM151.633 14.5015L152.137 15.0417L152.146 15.033L152.155 15.024L151.633 14.5015ZM155.305 14.5015L154.747 14.9854L154.764 15.0054L154.783 15.024L155.305 14.5015ZM155.29 49.3622C155.29 49.9329 155.104 50.3804 154.731 50.7534L155.776 51.7984C156.437 51.1369 156.768 50.3086 156.768 49.3622H155.29ZM154.731 50.7534C154.396 51.0885 153.984 51.2611 153.443 51.2611V52.7389C154.35 52.7389 155.146 52.4287 155.776 51.7984L154.731 50.7534ZM153.443 51.2611C152.901 51.2611 152.462 51.0875 152.085 50.7357L151.077 51.8161C151.735 52.4298 152.537 52.7389 153.443 52.7389V51.2611ZM152.121 50.7717C151.776 50.4018 151.596 49.9484 151.596 49.3622H150.118C150.118 50.2931 150.421 51.1156 151.041 51.78L152.121 50.7717ZM151.596 49.3622V16.3635H150.118V49.3622H151.596ZM151.596 16.3635C151.596 15.7932 151.781 15.3738 152.137 15.0417L151.129 13.9614C150.45 14.5947 150.118 15.4167 150.118 16.3635H151.596ZM152.155 15.024C152.536 14.6438 152.969 14.4646 153.495 14.4646V12.9868C152.573 12.9868 151.765 13.3249 151.11 13.9791L152.155 15.024ZM153.495 14.4646C154.065 14.4646 154.455 14.6489 154.747 14.9854L155.864 14.0176C155.259 13.3197 154.442 12.9868 153.495 12.9868V14.4646ZM154.783 15.024C155.111 15.3522 155.29 15.777 155.29 16.3635H156.768C156.768 15.4328 156.465 14.6164 155.828 13.9791L154.783 15.024ZM155.29 16.3635V49.3622H156.768V16.3635H155.29ZM185.055 25.3632L184.515 25.8673L184.524 25.8766L184.533 25.8856L185.055 25.3632ZM184.021 56.8619L183.392 56.4733L183.387 56.4817L184.021 56.8619ZM179.366 60.9996L179.069 60.323L179.062 60.3261L179.054 60.3295L179.366 60.9996ZM169.073 61.9824L169.214 61.257L169.204 61.2552L169.194 61.2535L169.073 61.9824ZM166.021 61.0514L166.363 60.3963L166.346 60.3875L166.329 60.3797L166.021 61.0514ZM164.263 59.6549L164.889 59.2633L164.889 59.2633L164.263 59.6549ZM164.108 57.8446L164.801 58.1L164.81 58.076L164.817 58.0515L164.108 57.8446ZM165.349 56.1378L165.034 55.4692L165.019 55.4766L165.003 55.4847L165.349 56.1378ZM167.159 56.086L167.441 55.4028L167.434 55.4L167.427 55.3974L167.159 56.086ZM177.09 56.7584L177.404 57.427L177.404 57.427L177.09 56.7584ZM179.728 54.1723L179.075 53.8266L179.071 53.8342L179.067 53.8419L179.728 54.1723ZM180.659 46.052L181.273 45.6421L179.92 43.6116V46.052H180.659ZM181.486 47.2933L182.151 47.6157L182.336 47.2352L182.101 46.8834L181.486 47.2933ZM179.314 50.138L178.837 49.574L178.837 49.574L179.314 50.138ZM176.107 51.8966L175.873 51.1956L175.867 51.1976L176.107 51.8966ZM167.159 51.2759L166.76 51.8979L166.77 51.9039L166.779 51.9095L167.159 51.2759ZM164.056 47.7588L163.389 48.0771L163.392 48.083L164.056 47.7588ZM163.694 25.3632L164.216 25.8856L164.225 25.8766L164.234 25.8673L163.694 25.3632ZM167.366 25.3632L166.826 25.8673L166.843 25.8859L166.862 25.9033L167.366 25.3632ZM169.642 46.2071L169.102 46.712L169.111 46.7207L169.642 46.2071ZM179.779 44.6555L180.421 45.0221L180.426 45.0124L179.779 44.6555ZM181.331 25.3632L180.809 24.8407L180.809 24.8407L181.331 25.3632ZM183.193 25.3262C183.763 25.3262 184.183 25.5115 184.515 25.8673L185.595 24.859C184.962 24.1804 184.14 23.8484 183.193 23.8484V25.3262ZM184.533 25.8856C184.861 26.2138 185.04 26.6387 185.04 27.2251H186.518C186.518 26.2945 186.215 25.478 185.577 24.8407L184.533 25.8856ZM185.04 27.2251V49.4656H186.518V27.2251H185.04ZM185.04 49.4656C185.04 52.4106 184.471 54.7285 183.392 56.4733L184.649 57.2504C185.915 55.2023 186.518 52.5894 186.518 49.4656H185.04ZM183.387 56.4817C182.325 58.2511 180.889 59.5244 179.069 60.323L179.662 61.6763C181.773 60.7508 183.44 59.2656 184.654 57.242L183.387 56.4817ZM179.054 60.3295C177.235 61.1744 175.154 61.6055 172.797 61.6055V63.0833C175.336 63.0833 177.635 62.6179 179.677 61.6698L179.054 60.3295ZM172.797 61.6055C171.604 61.6055 170.41 61.4896 169.214 61.257L168.932 62.7077C170.219 62.9579 171.507 63.0833 172.797 63.0833V61.6055ZM169.194 61.2535C168.001 61.0547 167.065 60.7626 166.363 60.3963L165.68 61.7064C166.563 62.1676 167.662 62.4963 168.951 62.7112L169.194 61.2535ZM166.329 60.3797C165.582 60.0374 165.133 59.6526 164.889 59.2633L163.636 60.0465C164.082 60.7605 164.805 61.3067 165.713 61.7231L166.329 60.3797ZM164.889 59.2633C164.675 58.9211 164.632 58.5589 164.801 58.1L163.414 57.5892C163.101 58.4406 163.16 59.2852 163.636 60.0465L164.889 59.2633ZM164.817 58.0515C165.02 57.3555 165.334 56.9819 165.695 56.7908L165.003 55.4847C164.192 55.9143 163.678 56.6786 163.398 57.6377L164.817 58.0515ZM165.664 56.8063C166.061 56.6194 166.453 56.6044 166.891 56.7747L167.427 55.3974C166.624 55.085 165.809 55.1045 165.034 55.4692L165.664 56.8063ZM166.878 56.7693C167.469 57.0128 168.249 57.3248 169.217 57.7048L169.757 56.3293C168.793 55.9507 168.021 55.642 167.441 55.4028L166.878 56.7693ZM169.217 57.7048C170.283 58.1238 171.481 58.3249 172.797 58.3249V56.8471C171.63 56.8471 170.621 56.6689 169.757 56.3293L169.217 57.7048ZM172.797 58.3249C174.564 58.3249 176.108 58.0368 177.404 57.427L176.775 56.0899C175.726 56.5834 174.409 56.8471 172.797 56.8471V58.3249ZM177.404 57.427C178.729 56.8038 179.729 55.8216 180.389 54.5028L179.067 53.8419C178.554 54.8677 177.796 55.6097 176.775 56.0899L177.404 57.427ZM180.381 54.518C181.076 53.2049 181.398 51.5574 181.398 49.6208H179.92C179.92 51.4081 179.621 52.795 179.075 53.8266L180.381 54.518ZM181.398 49.6208V46.052H179.92V49.6208H181.398ZM180.044 46.4618L180.871 47.7032L182.101 46.8834L181.273 45.6421L180.044 46.4618ZM180.821 46.9709C180.311 48.0233 179.648 48.887 178.837 49.574L179.791 50.7021C180.772 49.8719 181.558 48.8391 182.151 47.6157L180.821 46.9709ZM178.837 49.574C178.02 50.2653 177.036 50.8081 175.873 51.1956L176.341 52.5975C177.661 52.1574 178.815 51.5279 179.791 50.7021L178.837 49.574ZM175.867 51.1976C174.749 51.581 173.487 51.7783 172.073 51.7783V53.2561C173.624 53.2561 175.051 53.0396 176.347 52.5955L175.867 51.1976ZM172.073 51.7783C170.286 51.7783 168.785 51.3895 167.539 50.6423L166.779 51.9095C168.292 52.8174 170.067 53.2561 172.073 53.2561V51.7783ZM167.558 50.6538C166.331 49.8674 165.387 48.7998 164.72 47.4345L163.392 48.083C164.173 49.6832 165.298 50.9603 166.76 51.8979L167.558 50.6538ZM164.723 47.4405C164.053 46.0365 163.709 44.4238 163.709 42.5866H162.231C162.231 44.6113 162.611 46.4467 163.389 48.0771L164.723 47.4405ZM163.709 42.5866V27.2251H162.231V42.5866H163.709ZM163.709 27.2251C163.709 26.6387 163.888 26.2138 164.216 25.8856L163.171 24.8407C162.534 25.478 162.231 26.2945 162.231 27.2251H163.709ZM164.234 25.8673C164.566 25.5115 164.985 25.3262 165.556 25.3262V23.8484C164.609 23.8484 163.787 24.1804 163.154 24.859L164.234 25.8673ZM165.556 25.3262C166.081 25.3262 166.487 25.5038 166.826 25.8673L167.906 24.859C167.28 24.1881 166.479 23.8484 165.556 23.8484V25.3262ZM166.862 25.9033C167.218 26.2354 167.403 26.6548 167.403 27.2251H168.881C168.881 26.2783 168.549 25.4564 167.87 24.823L166.862 25.9033ZM167.403 27.2251V41.1901H168.881V27.2251H167.403ZM167.403 41.1901C167.403 43.553 167.919 45.4472 169.102 46.7119L170.181 45.7024C169.365 44.8292 168.881 43.3787 168.881 41.1901H167.403ZM169.111 46.7207C170.295 47.9456 172 48.4977 174.09 48.4977V47.0199C172.249 47.0199 170.989 46.5375 170.173 45.6936L169.111 46.7207ZM174.09 48.4977C175.506 48.4977 176.775 48.1988 177.87 47.5728L177.137 46.2897C176.302 46.7671 175.295 47.0199 174.09 47.0199V48.4977ZM177.87 47.5728C178.95 46.9556 179.804 46.1021 180.421 45.0221L179.138 44.2889C178.652 45.1398 177.988 45.8035 177.137 46.2897L177.87 47.5728ZM180.426 45.0124C181.047 43.888 181.346 42.6066 181.346 41.1901H179.868C179.868 42.3941 179.615 43.4231 179.132 44.2985L180.426 45.0124ZM181.346 41.1901V27.2251H179.868V41.1901H181.346ZM181.346 27.2251C181.346 26.6387 181.525 26.2138 181.853 25.8856L180.809 24.8407C180.171 25.478 179.868 26.2945 179.868 27.2251H181.346ZM181.853 25.8856C182.234 25.5054 182.667 25.3262 183.193 25.3262V23.8484C182.271 23.8484 181.463 24.1865 180.809 24.8407L181.853 25.8856Z" fill="white"/>
<circle cx="8.95711" cy="23.7345" r="8.95711" fill="white"/>
<circle cx="29.8282" cy="23.7345" r="8.95711" fill="#4162FF"/>
<circle cx="8.95711" cy="44.6055" r="8.95711" fill="#FE5925"/>
<circle cx="29.8282" cy="44.6055" r="8.95711" fill="white"/>
</svg>
