<svg xmlns="http://www.w3.org/2000/svg" version="1.1" viewBox="0 0 187 33">
  <g stroke="none" stroke-width="1" fill="#000" fill-rule="evenodd">
    <path d="M184.007 32.638a2.635 2.635 0 01-2.638-2.647 2.632 2.632 0 012.638-2.63 2.632 2.632 0 012.632 2.63 2.635 2.635 0 01-2.632 2.647zm0-5.638a2.999 2.999 0 100 6A2.995 2.995 0 00187 29.991 2.99 2.99 0 00184.007 27z"/>
    <path d="M184.172 30.328h-.71v-1.06h1.083c.47 0 .985.055.985.519 0 .61-.825.541-1.358.541zm1.828-.534a.707.707 0 00-.425-.646c-.284-.134-.604-.148-.924-.148H183v3h.462v-1.385h.851L185.397 32h.55l-1.145-1.385c.675-.013 1.198-.231 1.198-.821zM166.94 13.66l5.801-6.127c.336-.45.503-.765.503-1.035 0-.45-.391-.63-1.62-.63h-1.464V2H186v3.868h-2.082c-2.404 0-2.851.36-6.203 4.543l-9.177 9.804v5.983c0 1.53.782 2.07 3.018 2.07h3.465V32h-22.185v-3.733h3.465c2.235 0 3.017-.538 3.017-2.069v-5.983L148.512 8.387c-1.788-2.068-1.54-2.519-6.512-2.519V2h20.064v3.868h-1.428c-1.454 0-2.069.271-2.069.81 0 .45.447.81.727 1.169l5.467 5.896c.647.669 1.439.755 2.18-.082M32.322 1.948h4.88V12.78h-4.507c-.399-2.165-1.775-3.008-3.032-4.144-2.265-2.048-7.169-3.754-11.295-3.754-5.323 0-9.817 1.626-9.817 4.017C8.551 15.534 39 10.253 39 22.801 39 29.344 32.478 33 20.765 33c-4.055 0-10.192-1.239-13.812-3.131-1.135-.646-1.617.61-1.828 2.184H.118V20.86h4.528c.997 2.843 2.374 3.43 3.64 4.558 2.195 1.985 7.421 3.431 12.212 3.384 7.226-.07 9.712-1.625 9.712-3.882 0-2.256-2.459-2.797-10.377-4.016l-6.722-1.083C5.524 18.693 0 17.022 0 11.065 0 4.882 6.988 1 18.036 1c4.656 0 8.552.613 12.29 2.694 1.038.66 2.01.741 1.996-1.746m94.852 17.897l.097-11.998c0-1.574-.828-2.113-3.198-2.113h-2.784V2H139v3.734h-2.31c-2.37 0-3.2.54-3.2 2.113V32l-6.933-.052-22.445-20.997v15.247c0 1.53.83 2.114 3.198 2.114h3.08V32H92v-3.688h3.047c2.369 0 3.198-.583 3.198-2.114V7.848c0-1.575-.83-2.114-3.198-2.114H92V2h15.903l19.271 17.845M66.77 29.073c-7.862 0-12.381-4.468-12.381-12.186 0-7.537 4.715-12.005 12.773-12.005 7.73 0 12.25 4.558 12.25 12.321 0 7.582-4.585 11.87-12.643 11.87zM67.092 1C52.89 1 44 7.184 44 17.113 44 26.863 52.766 33 66.66 33 81.416 33 90 26.952 90 16.616 90 7.32 80.737 1 67.093 1z"/>
  </g>
</svg>
